<svg xmlns="http://www.w3.org/2000/svg" xmlns:xlink="http://www.w3.org/1999/xlink" width="2000" zoomAndPan="magnify" viewBox="0 0 1500 1499.999933" height="2000" preserveAspectRatio="xMidYMid meet" version="1.0"><defs><g/><clipPath id="473376080d"><rect x="0" width="1174" y="0" height="1308"/></clipPath><clipPath id="259ac218da"><rect x="0" width="1290" y="0" height="366"/></clipPath></defs><g transform="matrix(1, 0, 0, 1, 170, 0.000000000000112861)"><g clip-path="url(#473376080d)"><g fill="#ff3131" fill-opacity="1"><g transform="translate(145.989945, 938.894996)"><g><path d="M 454.421875 -390.109375 C 441.453125 -470.222656 422.296875 -559.242188 396.953125 -657.171875 C 362.441406 -555.410156 328.890625 -463.285156 296.296875 -380.796875 C 382.085938 -381.671875 434.796875 -384.773438 454.421875 -390.109375 Z M 245.578125 -256.4375 C 224.648438 -208.382812 204.039062 -164.285156 183.75 -124.140625 C 117.425781 7.085938 40.332031 75.734375 -47.53125 81.796875 L -48.1875 79.5 C -7.332031 10.144531 32.3125 -68.363281 70.75 -156.03125 C 82.507812 -185.488281 95.597656 -219.90625 110.015625 -259.28125 C 38.535156 -263.59375 -9.023438 -280.476562 -32.671875 -309.9375 C -56.328125 -339.394531 -66.734375 -364.8125 -63.890625 -386.1875 C -61.054688 -407.5625 -49.546875 -412.550781 -29.359375 -401.15625 C -9.179688 -389.757812 14.898438 -382.351562 42.890625 -378.9375 C 70.890625 -375.53125 107.414062 -376.25 152.46875 -381.09375 C 175.894531 -448.75 201.085938 -525.789062 228.046875 -612.21875 C 240.984375 -678.113281 270.78125 -723.960938 317.4375 -749.765625 C 364.101562 -775.578125 411.910156 -774.296875 460.859375 -745.921875 C 489.566406 -731.597656 511.0625 -707.617188 525.34375 -673.984375 L 539.34375 -633.734375 C 584.957031 -466.296875 607.191406 -342.582031 606.046875 -262.59375 C 606.691406 -89.375 598.332031 7.25 580.96875 27.28125 C 563.601562 47.3125 546.835938 45.359375 530.671875 21.421875 C 514.515625 -2.515625 495.476562 -85.210938 473.5625 -226.671875 C 472.363281 -245.679688 470.785156 -265.453125 468.828125 -285.984375 L 460.1875 -282.453125 C 423.550781 -266.367188 352.015625 -257.695312 245.578125 -256.4375 Z M 245.578125 -256.4375 "/></g></g></g><g fill="#ff3131" fill-opacity="1"><g transform="translate(702.044355, 907.413545)"><g><path d="M 218.484375 -678.40625 C 284.097656 -677.257812 329.1875 -657 353.75 -617.625 C 358.71875 -608.707031 360.890625 -600.972656 360.265625 -594.421875 L 356.921875 -539.71875 C 352.367188 -471.257812 307.972656 -339.375 223.734375 -144.0625 C 150.765625 28.945312 96.34375 112.800781 60.46875 107.5 L 44.296875 107.265625 C 29.046875 107.203125 16.460938 96.519531 6.546875 75.21875 L 10.859375 13.0625 C 166.648438 -347.894531 245.863281 -548.078125 248.5 -587.484375 C 251.132812 -626.890625 241.019531 -655.789062 218.15625 -674.1875 Z M 218.484375 -678.40625 "/></g></g></g></g></g><g transform="matrix(1, 0, 0, 1, 117, 1065)"><g clip-path="url(#259ac218da)"><g fill="#f4f6fc" fill-opacity="1"><g transform="translate(1.011989, 273.630547)"><g><path d="M 101.625 2.96875 C 93.894531 2.96875 86.21875 1.582031 78.59375 -1.1875 C 70.96875 -3.957031 64.53125 -8.515625 59.28125 -14.859375 L 59.28125 0 L 21.84375 0 L 21.84375 -209.921875 L 59.28125 -209.921875 L 59.28125 -133.5625 C 64.53125 -140 70.816406 -144.601562 78.140625 -147.375 C 85.472656 -150.144531 93.101562 -151.53125 101.03125 -151.53125 C 111.425781 -151.53125 120.632812 -149.472656 128.65625 -145.359375 C 136.675781 -141.253906 143.382812 -135.613281 148.78125 -128.4375 C 154.1875 -121.257812 158.273438 -113.015625 161.046875 -103.703125 C 163.816406 -94.390625 165.203125 -84.582031 165.203125 -74.28125 C 165.203125 -63.976562 163.816406 -54.195312 161.046875 -44.9375 C 158.273438 -35.675781 154.1875 -27.457031 148.78125 -20.28125 C 143.382812 -13.101562 136.75 -7.429688 128.875 -3.265625 C 121.007812 0.890625 111.925781 2.96875 101.625 2.96875 Z M 92.5625 -30.453125 C 100.875 -30.453125 107.703125 -32.382812 113.046875 -36.25 C 118.398438 -40.113281 122.335938 -45.363281 124.859375 -52 C 127.390625 -58.632812 128.65625 -66.0625 128.65625 -74.28125 C 128.65625 -82.5 127.390625 -89.972656 124.859375 -96.703125 C 122.335938 -103.441406 118.398438 -108.789062 113.046875 -112.75 C 107.703125 -116.71875 100.875 -118.703125 92.5625 -118.703125 C 84.238281 -118.703125 77.378906 -116.71875 71.984375 -112.75 C 66.585938 -108.789062 62.578125 -103.46875 59.953125 -96.78125 C 57.328125 -90.101562 56.015625 -82.601562 56.015625 -74.28125 C 56.015625 -65.957031 57.328125 -58.503906 59.953125 -51.921875 C 62.578125 -45.335938 66.585938 -40.113281 71.984375 -36.25 C 77.378906 -32.382812 84.238281 -30.453125 92.5625 -30.453125 Z M 92.5625 -30.453125 "/></g></g></g><g fill="#f4f6fc" fill-opacity="1"><g transform="translate(200.065925, 273.630547)"><g><path d="M 71.15625 2.96875 C 58.675781 2.96875 48.453125 -0.0234375 40.484375 -6.015625 C 32.515625 -12.003906 26.617188 -20.492188 22.796875 -31.484375 C 18.984375 -42.484375 17.078125 -55.410156 17.078125 -70.265625 L 17.078125 -148.421875 L 53.78125 -148.421875 L 53.78125 -69.078125 C 53.78125 -60.960938 54.5 -53.984375 55.9375 -48.140625 C 57.375 -42.296875 60.019531 -37.785156 63.875 -34.609375 C 67.738281 -31.441406 73.335938 -29.859375 80.671875 -29.859375 C 84.929688 -29.859375 89.09375 -30.550781 93.15625 -31.9375 C 97.21875 -33.320312 100.90625 -35.875 104.21875 -39.59375 C 107.539062 -43.3125 110.164062 -48.5625 112.09375 -55.34375 C 114.019531 -62.125 114.984375 -70.863281 114.984375 -81.5625 L 114.984375 -148.421875 L 151.828125 -148.421875 L 151.828125 0 L 114.984375 0 L 114.984375 -17.375 C 109.640625 -10.445312 103.203125 -5.320312 95.671875 -2 C 88.148438 1.3125 79.976562 2.96875 71.15625 2.96875 Z M 71.15625 2.96875 "/></g></g></g><g fill="#f4f6fc" fill-opacity="1"><g transform="translate(397.782789, 273.630547)"><g><path d="M 20.65625 -176.5 L 20.65625 -209.921875 L 58.390625 -209.921875 L 58.390625 -176.5 Z M 21.546875 0 L 21.546875 -148.421875 L 57.5 -148.421875 L 57.5 0 Z M 21.546875 0 "/></g></g></g><g fill="#f4f6fc" fill-opacity="1"><g transform="translate(501.160874, 273.630547)"><g><path d="M 51.703125 2.96875 C 46.054688 2.96875 40.878906 2.078125 36.171875 0.296875 C 31.472656 -1.484375 27.710938 -4.722656 24.890625 -9.421875 C 22.066406 -14.128906 20.65625 -20.84375 20.65625 -29.5625 L 20.65625 -209.921875 L 56.90625 -209.921875 L 56.90625 -39.515625 C 56.90625 -36.046875 57.96875 -33.519531 60.09375 -31.9375 C 62.226562 -30.351562 65.125 -29.5625 68.78125 -29.5625 C 69.875 -29.5625 71.335938 -29.632812 73.171875 -29.78125 C 75.003906 -29.9375 76.859375 -30.160156 78.734375 -30.453125 L 78.734375 0 C 74.972656 0.695312 70.613281 1.363281 65.65625 2 C 60.707031 2.644531 56.054688 2.96875 51.703125 2.96875 Z M 51.703125 2.96875 "/></g></g></g><g fill="#f4f6fc" fill-opacity="1"><g transform="translate(610.630109, 273.630547)"><g><path d="M 115.28125 -209.921875 L 152.140625 -209.921875 L 152.140625 0 L 118.40625 0 L 116.78125 -16.640625 C 111.625 -9.703125 105.207031 -4.695312 97.53125 -1.625 C 89.851562 1.4375 81.90625 2.96875 73.6875 2.96875 C 63.289062 2.96875 54.078125 0.914062 46.046875 -3.1875 C 38.023438 -7.300781 31.289062 -12.945312 25.84375 -20.125 C 20.394531 -27.3125 16.285156 -35.535156 13.515625 -44.796875 C 10.742188 -54.054688 9.359375 -63.882812 9.359375 -74.28125 C 9.359375 -84.582031 10.742188 -94.363281 13.515625 -103.625 C 16.285156 -112.882812 20.367188 -121.101562 25.765625 -128.28125 C 31.171875 -135.46875 37.832031 -141.140625 45.75 -145.296875 C 53.675781 -149.453125 62.789062 -151.53125 73.09375 -151.53125 C 80.820312 -151.53125 88.5 -150.144531 96.125 -147.375 C 103.75 -144.601562 110.132812 -140 115.28125 -133.5625 Z M 82.453125 -29.859375 C 90.773438 -29.859375 97.582031 -31.8125 102.875 -35.71875 C 108.175781 -39.632812 112.085938 -44.9375 114.609375 -51.625 C 117.140625 -58.3125 118.40625 -65.863281 118.40625 -74.28125 C 118.40625 -82.601562 117.140625 -90.101562 114.609375 -96.78125 C 112.085938 -103.46875 108.175781 -108.789062 102.875 -112.75 C 97.582031 -116.71875 90.773438 -118.703125 82.453125 -118.703125 C 74.128906 -118.703125 67.296875 -116.71875 61.953125 -112.75 C 56.609375 -108.789062 52.644531 -103.441406 50.0625 -96.703125 C 47.488281 -89.972656 46.203125 -82.5 46.203125 -74.28125 C 46.203125 -65.957031 47.488281 -58.425781 50.0625 -51.6875 C 52.644531 -44.957031 56.609375 -39.632812 61.953125 -35.71875 C 67.296875 -31.8125 74.128906 -29.859375 82.453125 -29.859375 Z M 82.453125 -29.859375 "/></g></g></g><g fill="#f4f6fc" fill-opacity="1"><g transform="translate(808.941283, 273.630547)"><g><path d="M 20.65625 -176.5 L 20.65625 -209.921875 L 58.390625 -209.921875 L 58.390625 -176.5 Z M 21.546875 0 L 21.546875 -148.421875 L 57.5 -148.421875 L 57.5 0 Z M 21.546875 0 "/></g></g></g><g fill="#f4f6fc" fill-opacity="1"><g transform="translate(912.319367, 273.630547)"><g><path d="M 21.546875 0 L 21.546875 -148.421875 L 57.5 -148.421875 L 57.5 -131.1875 C 61.457031 -136.039062 65.910156 -139.953125 70.859375 -142.921875 C 75.816406 -145.890625 80.921875 -148.066406 86.171875 -149.453125 C 91.421875 -150.835938 96.472656 -151.53125 101.328125 -151.53125 C 111.023438 -151.53125 119.289062 -149.769531 126.125 -146.25 C 132.96875 -142.738281 138.515625 -137.988281 142.765625 -132 C 147.023438 -126.007812 150.144531 -119.300781 152.125 -111.875 C 154.113281 -104.445312 155.109375 -96.867188 155.109375 -89.140625 L 155.109375 0 L 119.296875 0 L 119.296875 -84.53125 C 119.296875 -91.070312 118.226562 -96.867188 116.09375 -101.921875 C 113.96875 -106.972656 110.800781 -110.929688 106.59375 -113.796875 C 102.382812 -116.671875 97.160156 -118.109375 90.921875 -118.109375 C 80.722656 -118.109375 72.601562 -115.210938 66.5625 -109.421875 C 60.519531 -103.628906 57.5 -94.242188 57.5 -81.265625 L 57.5 0 Z M 21.546875 0 "/></g></g></g><g fill="#f4f6fc" fill-opacity="1"><g transform="translate(1109.144816, 273.630547)"><g><path d="M 89.4375 -23.171875 C 95.082031 -22.378906 100.675781 -21.4375 106.21875 -20.34375 C 111.769531 -19.257812 116.992188 -17.773438 121.890625 -15.890625 C 126.796875 -14.015625 131.15625 -11.515625 134.96875 -8.390625 C 138.78125 -5.273438 141.773438 -1.363281 143.953125 3.34375 C 146.140625 8.050781 147.234375 13.820312 147.234375 20.65625 C 147.234375 29.070312 145.546875 36.375 142.171875 42.5625 C 138.804688 48.75 134.148438 53.898438 128.203125 58.015625 C 122.265625 62.128906 115.304688 65.195312 107.328125 67.21875 C 99.359375 69.25 90.769531 70.265625 81.5625 70.265625 C 67 70.265625 54.539062 67.960938 44.1875 63.359375 C 33.84375 58.753906 25.921875 52.460938 20.421875 44.484375 C 14.929688 36.515625 12.1875 27.476562 12.1875 17.375 C 12.1875 15.695312 12.257812 14.382812 12.40625 13.4375 C 12.550781 12.5 12.675781 11.6875 12.78125 11 L 28.234375 -2.96875 C 23.867188 -5.9375 20.347656 -9.773438 17.671875 -14.484375 C 15.003906 -19.191406 13.671875 -25.109375 13.671875 -32.234375 C 13.671875 -38.867188 14.882812 -44.660156 17.3125 -49.609375 C 19.738281 -54.566406 23.128906 -58.976562 27.484375 -62.84375 C 23.617188 -67.5 20.597656 -72.722656 18.421875 -78.515625 C 16.242188 -84.304688 15.15625 -90.472656 15.15625 -97.015625 C 15.15625 -105.035156 16.765625 -112.390625 19.984375 -119.078125 C 23.203125 -125.765625 27.632812 -131.535156 33.28125 -136.390625 C 38.925781 -141.242188 45.410156 -144.976562 52.734375 -147.59375 C 60.066406 -150.21875 67.84375 -151.53125 76.0625 -151.53125 C 82.5 -151.53125 88.710938 -150.710938 94.703125 -149.078125 C 100.703125 -147.453125 106.175781 -145.101562 111.125 -142.03125 L 133.859375 -161.5 L 152.734375 -138.46875 L 131.1875 -121.078125 C 135.445312 -113.453125 137.578125 -104.835938 137.578125 -95.234375 C 137.578125 -86.910156 135.988281 -79.429688 132.8125 -72.796875 C 129.644531 -66.160156 125.265625 -60.460938 119.671875 -55.703125 C 114.078125 -50.953125 107.640625 -47.3125 100.359375 -44.78125 C 93.078125 -42.257812 85.375 -41 77.25 -41 C 72.101562 -41 67.175781 -41.492188 62.46875 -42.484375 C 57.769531 -43.472656 53.289062 -44.910156 49.03125 -46.796875 C 46.15625 -44.910156 44.71875 -42.285156 44.71875 -38.921875 C 44.71875 -34.859375 46.597656 -31.910156 50.359375 -30.078125 C 54.128906 -28.253906 59.378906 -26.921875 66.109375 -26.078125 C 72.847656 -25.234375 80.625 -24.265625 89.4375 -23.171875 Z M 77.25 -123.453125 C 69.425781 -123.453125 63.359375 -120.953125 59.046875 -115.953125 C 54.742188 -110.953125 52.59375 -104.539062 52.59375 -96.71875 C 52.59375 -89.1875 54.695312 -82.941406 58.90625 -77.984375 C 63.113281 -73.035156 69.226562 -70.5625 77.25 -70.5625 C 85.375 -70.5625 91.46875 -73.035156 95.53125 -77.984375 C 99.59375 -82.941406 101.625 -89.1875 101.625 -96.71875 C 101.625 -104.539062 99.539062 -110.953125 95.375 -115.953125 C 91.21875 -120.953125 85.175781 -123.453125 77.25 -123.453125 Z M 81.859375 41.75 C 91.265625 41.75 98.789062 40.285156 104.4375 37.359375 C 110.082031 34.441406 112.90625 30.304688 112.90625 24.953125 C 112.90625 21.296875 111.519531 18.550781 108.75 16.71875 C 105.976562 14.882812 101.890625 13.492188 96.484375 12.546875 C 91.085938 11.609375 84.476562 10.695312 76.65625 9.8125 C 72.5 9.3125 68.140625 8.765625 63.578125 8.171875 C 59.023438 7.578125 54.570312 6.785156 50.21875 5.796875 L 42.640625 18.28125 C 43.328125 23.519531 45.429688 27.875 48.953125 31.34375 C 52.472656 34.8125 57.078125 37.410156 62.765625 39.140625 C 68.460938 40.878906 74.828125 41.75 81.859375 41.75 Z M 81.859375 41.75 "/></g></g></g></g></g></svg>